/* XPM */
static char * C:\HomeDev\frak_mode\img\string_xpm[] = {
"8 16 3 1",
" 	c None",
".	c #003366",
"+	c #FFFF1E",
"........",
"........",
"........",
"........",
"........",
"........",
"........",
"........",
"........",
"........",
"++++++++",
"........",
"........",
"........",
"........",
"........"};
