/* XPM */
static char * C:\HomeDev\frak_mode\img\trogg_xpm[] = {
"12 16 6 1",
" 	c None",
".	c #003366",
"+	c #000000",
"@	c #FFFF00",
"#	c #FF00FF",
"$	c #FFFF1E",
".......++...",
".....+++@#..",
"...++++#@###",
"...+++#+++..",
"..+##+@#+...",
".++###++#...",
"+#+#+##+#...",
"+####+##+...",
".+@@@@+##++.",
".+@@@@@++#+.",
"..+@@@+...$$",
"...+##+.....",
"..+##+......",
"++###+......",
"+#++#++.....",
"+##+###+...."};
