/* XPM */
static char * C:\HomeDev\frak_mode\img\trogg_xpm[] = {
"18 26 5 1",
" 	c None",
".	c #00FBFF",
"+	c #000000",
"@	c #FF56FF",
"#	c #FFF900",
".........++++.....",
"........++++++....",
"......++++@#+@++++",
"....++++++@#+@@@@+",
"...+++++++@@@+++++",
"...++++#+@++@+....",
"...++@@+#+@++.....",
"..++@@@+++@@......",
"++@@@@@@@++@+.....",
"+@@@@@@@@++@+.....",
"+@+@@+@@@@+++.....",
"+@+@@@++@@@++.....",
"+@+++++++@@@++....",
"+++#####+@@@++++..",
"..+#######++@@@+..",
"..+########+++@+++",
"..+######+++.++@@+",
"...++++++.........",
"...+@@@@+.........",
"...+@@@++.........",
".++@@@@@+.........",
"++@@@+@@+.........",
"@@@@++@++.........",
"+@@+++@+++........",
"+@@++@@@@+........",
"++++++++++........"};
