/* XPM */
static char * C:\HomeDev\frak_mode\img\yoyo_xpm[] = {
"12 16 2 1",
" 	c #003366",
".	c #FFFF1E",
"            ",
"            ",
"            ",
"            ",
"            ",
"            ",
"      ..... ",
"     ..   ..",
"     ....  .",
"     ..... .",
"..... ..... ",
"            ",
"            ",
"            ",
"            ",
"            "};
